<?xml version="1.0" encoding="utf-8"?>
<svg xmlns="http://www.w3.org/2000/svg" viewBox="103.5718 138.9905 244.5264 414.2511" width="250px" height="250px">
    <defs>
        <linearGradient gradientUnits="userSpaceOnUse" x1="225.835" y1="138.991" x2="225.835" y2="553.242" id="gradient-0">
            <stop offset="0" style="stop-color: rgb(35.098% 41.961% 88.824%)"/>
            <stop offset="1" style="stop-color: rgb(21.197% 78.718% 30%)"/>
        </linearGradient>
        <linearGradient gradientUnits="userSpaceOnUse" x1="225.835" y1="138.991" x2="225.835" y2="553.242" id="gradient-2">
            <stop offset="0.15937" stop-color="#3BEA62"/>
            <stop offset="0.5404" stop-color="#3C99CC"/>
            <stop offset="0.93739" stop-color="#6B57FF"/>
        </linearGradient>
    </defs>
    <path stroke-width="0" d="M 304.5 140.021 C 309.333 138.817 319.443 138.487 325.351 140.021 C 330.565 141.374 335.099 143.448 338.556 147.666 C 342.683 152.701 345.38 161.128 346.897 169.907 C 348.718 180.448 348.263 192.28 346.897 207.438 C 345.097 227.402 339.377 260.405 334.386 281.11 C 330.302 298.054 326.48 310.344 320.486 324.201 C 314.451 338.151 306.169 353.515 298.245 364.512 C 291.44 373.957 285.819 380.064 276.7 387.448 C 265.953 396.151 251.723 407.323 236.388 412.469 C 220.017 417.963 196.876 420.655 180.787 418.029 C 166.61 415.715 150.068 408.645 143.951 400.653 C 139.016 394.208 139.647 387.726 141.17 377.023 C 143.623 359.791 153.354 330.867 167.581 303.351 C 185.797 268.121 232.775 195.249 248.899 183.112 C 255.22 178.354 259.692 181.067 262.799 181.722 C 264.861 182.156 264.826 185.352 266.969 184.502 C 272.374 182.359 290.986 150.506 297.55 144.191 C 300.705 141.155 301.189 140.845 304.5 140.021 Z M 139.672 476.025 C 149.356 474.067 163.841 472.916 173.033 476.025 C 181.317 478.828 189.275 484.567 193.188 492.011 C 197.463 500.143 197.542 516.039 195.969 523.982 C 194.8 529.881 190.856 535.026 188.323 537.187 C 186.695 538.577 185.294 537.286 183.458 538.577 C 180.528 540.638 177.515 548.763 173.033 551.087 C 168.502 553.438 161.1 553.807 156.352 552.477 C 151.945 551.243 149.948 545.821 145.232 544.137 C 139.68 542.155 130.708 545.125 124.381 542.747 C 117.944 540.328 110.354 535.279 107.006 529.542 C 103.707 523.888 102.795 515.653 104.226 508.691 C 105.794 501.06 111.365 491.22 117.431 485.755 C 123.291 480.477 131.144 477.75 139.672 476.025 Z" style="stroke-width: 2px; fill: url(&quot;#gradient-0&quot;); stroke: url(&quot;#gradient-2&quot;);" id="object-0"/>
</svg>